<svg id="Layer_1" data-name="Layer 1" xmlns="http://www.w3.org/2000/svg" viewBox="0 0 489.93 425.4"><defs><style>.cls-1{fill:#f26522;}.cls-2{fill:#be1e2d;}.cls-3{fill:#ed1c24;}</style></defs><path class="cls-1" d="M379.61,415.9h92.55a371.69,371.69,0,0,1-9.1-81.59c0-2.39.14-4.75.18-7.13H295.32V441.12a371.34,371.34,0,0,0,84.29,15.2Z" transform="translate(-295.32 -327.18)"/><path class="cls-2" d="M497,601.88h79.55a374.54,374.54,0,0,1-42.7-49.17Z" transform="translate(-295.32 -327.18)"/><path class="cls-3" d="M421.19,576.11a275.59,275.59,0,0,0-125.87-47V646.31a106.1,106.1,0,0,0,40.62,83.42A250.65,250.65,0,0,1,421.19,576.11Z" transform="translate(-295.32 -327.18)"/><path class="cls-1" d="M370.76,663.86l60.42-80.51c-3.28-2.48-6.6-4.9-10-7.24a250.65,250.65,0,0,0-85.25,153.62,105.8,105.8,0,0,0,65.73,22.85H536.35A275.37,275.37,0,0,0,503,663.86Z" transform="translate(-295.32 -327.18)"/><path class="cls-2" d="M636.43,415.9,560.66,517c7.77-.74,15.64-1.14,23.62-1.14A249.81,249.81,0,0,1,720.72,556.2V433.53A106.16,106.16,0,0,0,671,343.64,373.55,373.55,0,0,1,573.8,415.9Z" transform="translate(-295.32 -327.18)"/><path class="cls-2" d="M379.61,477.9V456.32a371.34,371.34,0,0,1-84.29-15.2v88a275.59,275.59,0,0,1,125.87,47c3.39,2.34,6.71,4.76,10,7.24l23.62-31.47,43.94-58.54,11.59-15.44Z" transform="translate(-295.32 -327.18)"/><path class="cls-3" d="M472.16,415.9H573.8A373.55,373.55,0,0,0,671,343.64a105.71,105.71,0,0,0-56.66-16.46H463.24c0,2.38-.18,4.74-.18,7.13A371.69,371.69,0,0,0,472.16,415.9Z" transform="translate(-295.32 -327.18)"/><path class="cls-1" d="M560.66,517l-26.77,35.71a374.54,374.54,0,0,0,42.7,49.17H785.26L720.72,570.3V556.2a249.81,249.81,0,0,0-136.44-40.34C576.3,515.86,568.43,516.26,560.66,517Z" transform="translate(-295.32 -327.18)"/><path class="cls-3" d="M503,663.86a275.37,275.37,0,0,1,33.39,88.72H720.72V694.49l64.54-30.63Z" transform="translate(-295.32 -327.18)"/></svg>